<?xml version="1.0" standalone="no"?><!DOCTYPE svg PUBLIC "-//W3C//DTD SVG 1.1//EN" "http://www.w3.org/Graphics/SVG/1.1/DTD/svg11.dtd"><svg t="1733360756279" class="icon" viewBox="0 0 1024 1024" version="1.1" xmlns="http://www.w3.org/2000/svg" p-id="12897" width="256" height="256" xmlns:xlink="http://www.w3.org/1999/xlink"><path d="M804.7616 178.2784H219.2384c-22.528 0-40.96 18.432-40.96 40.96v585.5232c0 22.528 18.432 40.96 40.96 40.96h585.5232c22.528 0 40.96-18.432 40.96-40.96V219.2384c0-22.528-18.432-40.96-40.96-40.96zM698.0608 704.1024c0 7.2704-2.56 13.9264-6.7584 19.2512-1.6384 2.048-3.4816 3.9936-5.7344 5.632-13.5168 10.1376-32.8704 7.4752-43.008-6.0416L388.8128 407.9616v296.1408c0 16.896-13.824 30.72-30.72 30.72s-30.72-13.824-30.72-30.72V321.7408c-0.3072-9.6256 3.8912-19.2512 12.1856-25.4976 4.608-3.4816 10.0352-5.5296 15.4624-6.0416 1.024-0.1024 2.048-0.2048 3.1744-0.2048 5.0176 0 9.728 1.2288 13.824 3.3792 0.1024 0.1024 0.2048 0.1024 0.4096 0.2048s0.512 0.3072 0.7168 0.4096c0.2048 0.1024 0.512 0.3072 0.7168 0.4096 0.1024 0.1024 0.2048 0.1024 0.3072 0.2048 0.4096 0.2048 0.7168 0.4096 1.1264 0.7168 2.3552 1.6384 4.608 3.584 6.5536 5.9392 0 0 0 0.1024 0.1024 0.1024 0.2048 0.3072 0.512 0.6144 0.7168 0.9216l254.0544 315.392v-296.96c0-16.896 13.824-30.72 30.72-30.72s30.72 13.824 30.72 30.72v383.3856z" p-id="12898" data-spm-anchor-id="a313x.search_index.0.i0.7c0d3a81n31GPO" class="" fill="#1D1D1D"></path></svg>