<svg width="160" height="160"
     xmlns="http://www.w3.org/2000/svg" version="1.1">
<style>path {fill-opacity:1; stroke:none;}</style>
<path d="M 123.2286,131.6174L 122.313,132.2493L 121.3496,132.7413L 119.3484,133.4072L 117.2609,133.4007L 115.2298,132.7191L 113.3874,131.477L 112.5753,130.6725L 110.9519,128.9341L 109.3223,127L 107.752,125L 107,124L 105.3223,122L 103.752,120L 103,119L 101.3223,117L 99.752,115L 99,114L 97.3223,112L 95.752,110L 95,109L 93.3223,107L 91.752,105L 91,104L 90.0879,103L 88.3418,101L 86.7539,99L 86,98L 84.3223,96L 82.752,94L 82,93L 80.3223,91L 78.752,89L 78,88L 76.3223,86L 74.752,84L 74,83L 72.3223,81L 70.752,79L 70,78L 68.3223,76L 66.752,74L 66,73L 64.3223,71L 62.752,69L 62,68L 60.3223,66L 58.752,64L 58,63L 56.3223,61L 54.752,59L 54,58L 52.3223,56L 50.752,54L 50,53L 49,53L 49,109L 48.998,112.9961L 48.9883,114.9766L 48.9609,116.9238L 48.9033,118.8193L 48.6987,122.4736L 48.4778,124.1353L 48.1711,125.6885L 47.7709,127.1228L 47.272,128.4269L 46.0733,130.7481L 45.2766,131.5923L 44.3947,132.2488L 42.4967,133.1625L 41.4617,133.2034L 39.4173,132.8585L 37.5423,131.6974L 36.0348,129.8211L 34.9917,127.3327L 34.3892,124.2922L 34.1135,120.7805L 34.0215,116.957L 34.002,112.9961L 34,109L 34,51L 34.002,47.0039L 34.0117,45.0234L 34.0664,41.1328L 34.1523,39.3047L 34.4287,35.8555L 34.6885,34.3652L 35.0222,33.0054L 35.4346,31.7725L 35.9309,30.6647L 37.1013,28.7057L 37.8685,27.9991L 38.7213,27.4512L 40.1629,27.0612L 42.657,26.8205L 44.7599,27.4407L 46.7867,28.631L 48.6202,30.2269L 50.2387,32.0517L 51,33L 52.6777,35L 54.248,37L 55,38L 56.6777,40L 58.248,42L 59,43L 60.6777,45L 62.248,47L 63,48L 64.6777,50L 66.248,52L 67,53L 68.6777,55L 70.248,57L 71,58L 72.6777,60L 74.248,62L 75,63L 76.6777,65L 78.248,67L 79,68L 80.6777,70L 82.248,72L 83,73L 84.6777,75L 86.248,77L 87,78L 88.6777,80L 90.248,82L 91,83L 92.6777,85L 94.248,87L 95,88L 96.6777,90L 98.248,92L 99,93L 100.6777,95L 102.248,97L 103,98L 104.6777,100L 106.248,102L 107,103L 108,104L 109,105L 110,106L 111,106L 111,51L 111.002,47.0039L 111.0117,45.0234L 111.0391,43.0781L 111.1543,39.3047L 111.3013,37.5791L 111.7432,34.3555L 112.1375,32.979L 113.1389,30.4653L 113.8574,29.4559L 114.6775,28.5927L 115.5831,27.897L 117.5242,26.8776L 118.577,26.7622L 119.6216,26.8475L 121.6475,27.3893L 123.4644,28.6097L 124.9335,30.4107L 125.976,32.7788L 126.5948,35.7394L 126.8823,39.2237L 126.978,43.043L 126.998,47.0039L 127,51L 127,108L 126.998,111.9961L 126.9883,113.9766L 126.9336,117.8672L 126.7627,121.5254L 126.3806,124.7783L 126.0524,126.1646L 125.2167,128.6992L 124.0947,130.877ZM 0,0L 0,160L 160,160L 160,0Z" style="fill:rgb(29,29,29);"/>
<path d="M 112,108L 112,31L 111,31L 111,108Z" style="fill:rgb(28,28,28);"/>
<path d="M 127,128L 127,31L 126,31L 126,128Z" style="fill:rgb(28,28,28);"/>
<path d="M 39,135L 44,135L 46,134L 47,133L 48,132L 49,129L 49,73L 49.001,71.002L 49.0149,69.0239L 49.0811,67.1055L 49.2743,65.3103L 49.9924,62.1577L 51.5682,60.4117L 53.737,60.5839L 55.6755,62.0723L 57.248,64L 58,65L 59.6777,67L 61.248,69L 62,70L 63.6777,72L 65.248,74L 66,75L 67.6777,77L 69.248,79L 70,80L 71.6777,82L 73.248,84L 74,85L 75.6777,87L 77.248,89L 78,90L 79.6777,92L 81.248,94L 82,95L 83.6777,97L 85.248,99L 86,100L 86.9121,101L 88.6582,103L 90.2461,105L 91,106L 92.6777,108L 94.248,110L 95,111L 96.6777,113L 98.248,115L 99,116L 100.6777,118L 102.248,120L 103,121L 104.6777,123L 106.248,125L 107,126L 108.6777,128L 110.248,130L 111,131L 112,132L 113,133L 114,134L 116,135L 122,135L 123,134L 124,133L 125,132L 126,130L 126,29L 125,28L 124,27L 123,26L 122,25L 116,25L 114,26.334L 113,27L 112,29L 112,88L 111.999,89.998L 111.9851,91.9761L 111.9189,93.8945L 111.7257,95.6897L 111.0076,98.8423L 109.4318,100.5883L 107.263,100.4161L 105.3245,98.9277L 103.752,97L 103,96L 101.3223,94L 99.752,92L 99,91L 97.3223,89L 95.752,87L 95,86L 93.3223,84L 91.752,82L 91,81L 89.3223,79L 87.752,77L 87,76L 85.3223,74L 83.752,72L 83,71L 81.3223,69L 79.752,67L 79,66L 77.3223,64L 75.752,62L 75,61L 73.3223,59L 71.752,57L 71,56L 69.3223,54L 67.752,52L 67,51L 65.3223,49L 63.752,47L 63,46L 61.3223,44L 59.752,42L 59,41L 57.3223,39L 55.752,37L 55,36L 53.3223,34L 51.752,32L 51,31L 50,30L 49,29L 48,28L 47,27L 46,26L 44,25L 39,25L 37,26L 36,27L 35,29L 34,31L 34,129L 35,132L 36,133L 37,134Z" style="fill:rgb(255,255,255);"/>
</svg>