<svg width="513" height="512" fill="none" xmlns="http://www.w3.org/2000/svg"><rect x=".431" width="512" height="512" rx="36" fill="#002676"/><path d="M343.616 238.271c28.159-16.879 52.336-47.821 52.336-84.949C395.952 93.128 345.864 56 258.124 56c-37.697 0-46.701 3.378-82.149 3.378s-59.057-2.81-73.705-2.81c-8.978 0-13.484 5.067-13.484 12.374 0 6.195 3.377 11.253 15.173 13.502 30.408 4.498 37.697 10.693 37.697 25.884.56 47.821 1.128 83.829 1.128 146.832s0 100.14-1.128 147.961c-.56 16.311-6.196 20.817-36.568 23.626-11.796 1.689-15.173 7.316-15.173 13.502 0 7.316 4.506 12.382 13.484 12.382 21.964 0 42.763-1.129 72.576-1.129 28.124 0 54.025 4.498 99.011 4.498 93.411 0 149.09-54.577 149.09-118.14 0-50.07-30.373-82.131-80.46-99.571v-.018ZM209.734 108.319c0-11.253 2.818-15.75 11.262-19.129 6.755-2.248 16.862-3.377 32.63-3.377 46.702 0 75.394 25.315 75.394 74.825 0 27.564-9.013 50.63-23.617 68.069-28.719-5.066-61.35-6.746-96.789-5.066 0-44.444 0-76.505 1.129-115.331l-.009.009Zm56.274 316.731c-15.208 0-24.772-1.129-33.19-3.378-16.897-3.938-22.524-9.564-23.084-29.822-1.129-42.754-1.129-75.945-1.129-136.708v-1.129c95.66-2.248 145.712 19.129 145.712 88.887 0 41.066-29.252 82.132-88.309 82.132v.018Z" fill="#FDB515"/></svg>