<?xml version="1.0" standalone="no"?><!DOCTYPE svg PUBLIC "-//W3C//DTD SVG 1.1//EN" "http://www.w3.org/Graphics/SVG/1.1/DTD/svg11.dtd"><svg t="1719885617329" class="icon" viewBox="0 0 1024 1024" version="1.1" xmlns="http://www.w3.org/2000/svg" p-id="7844" xmlns:xlink="http://www.w3.org/1999/xlink" width="64" height="64"><path d="M0 0m256 0l512 0q256 0 256 256l0 512q0 256-256 256l-512 0q-256 0-256-256l0-512q0-256 256-256Z" fill="#F5F7FB" p-id="7845"></path><path d="M724.096 736V258.24H613.568v303.808l-2.048 0.64-174.848-304.448H325.44V736h111.232V432.128l1.984-0.64L613.568 736h110.528zM512 0a512 512 0 0 1 512 512A512 512 0 1 1 0 512c0-282.752 229.312-512 512-512z" fill="#000000" p-id="7846" data-spm-anchor-id="a313x.search_index.0.i0.3bbf3a81xDpLkp" class="selected"></path></svg>